# xmcd
#
# Track frame offsets:
#	150
#	10071
#	19228
#	28505
#	38787
#	51177
#	59501
#	69397
#	79196
#	89809
#	98634
#	111323
#	120073
#	133232
#	145327
#	154623
#	166098
#	176443
#	186663
#	196493
#	206929
#	217181
#	226526
#	240784
#	247644
#	259233
#	269985
#	283194
#
# Disc length: 3908 seconds
#
# Revision: 0
# Processed by: cddbd v1.5.2PL0 Copyright (c) Steve Scherf et al.
# Submitted via: EasyCDDAExtractor 15.3.0.1
#
DISCID=940f421c
DTITLE=Various Artist - Boppin' On The Bayou
DYEAR=1900
DGENRE=
TTITLE0=Todd Tommy - Tag Along
TTITLE1=Ferrier Al - Kiss Me Baby
TTITLE2=Jano Johnny - She's Mine
TTITLE3=Bernard Rod - Linda Gail
TTITLE4=Gilroy Gil - Laura Lee
TTITLE5=Jivin' Gene - My Need For Love
TTITLE6=Anthony Vince - Watch My Smoke
TTITLE7=Fussell Bonnie - Too High Class
TTITLE8=Ferrier Al - Indian Rock 'n' Roll
TTITLE9=Watts Hunter - Wild Man Rock
TTITLE10=Walker Lawrence - Keep Your Hands Off It
TTITLE11=Ashire Nathan - That's All Right
TTITLE12=Bill and Carroll - Feel So Good
TTITLE13=Broussard Arnold - Some Other Time
TTITLE14=Bennett Ronnie - Just You Wait And See
TTITLE15=Bernard Rod - All Night In Jail
TTITLE16=Storm Warren - Kansas City
TTITLE17=Nathan and The Sparks - Don't Say No
TTITLE18=Todd Tommy - I Got A Great Big Love
TTITLE19=Chevalier Jay - Big Cloud Pt. 1
TTITLE20=Morgan Rocket - Release Me
TTITLE21=Barkdull Wiley and Rusty and Doug - Rattlesnake
TTITLE22=Jano Johnny - I'd Make A Good Man For You
TTITLE23=Jivin' Gene - I'm In Love With You
TTITLE24=Bernard Rod - Little Bitty Mama
TTITLE25=Todd Tommy - I'll Be There
TTITLE26=Playboys - Boogie Children-Walking With Frankie
TTITLE27=Morgan Rocket - Tag Along
EXTD=
EXTT0=
EXTT1=
EXTT2=
EXTT3=
EXTT4=
EXTT5=
EXTT6=
EXTT7=
EXTT8=
EXTT9=
EXTT10=
EXTT11=
EXTT12=
EXTT13=
EXTT14=
EXTT15=
EXTT16=
EXTT17=
EXTT18=
EXTT19=
EXTT20=
EXTT21=
EXTT22=
EXTT23=
EXTT24=
EXTT25=
EXTT26=
EXTT27=
PLAYORDER=
